<?xml version="1.0" encoding="utf-8"?>
<!-- Generator: Adobe Illustrator 24.1.0, SVG Export Plug-In . SVG Version: 6.00 Build 0)  -->
<svg version="1.1" xmlns="http://www.w3.org/2000/svg" xmlns:xlink="http://www.w3.org/1999/xlink" x="0px" y="0px"
	 viewBox="0 0 1036 570" style="enable-background:new 0 0 1036 570;" xml:space="preserve">
<style type="text/css">
	.st0{fill:#3F3D56;}
	.st1{opacity:0.3;fill:#6C63FF;enable-background:new    ;}
	.st2{fill:#6C63FF;}
	.st3{opacity:0.1;enable-background:new    ;}
	.st4{fill:#F2F2F2;}
	.st5{fill:#FFFFFF;}
</style>
<g id="b9bf6650-716f-405e-b16b-128ee0039b2f">
	<path class="st0" d="M193,295.8c0,106.6-86.4,193-193,193V102.8C106.6,102.8,193,189.2,193,295.8z"/>
	<path class="st0" d="M843,295.8c0,107.2,86.9,194.1,194.1,194.1V101.7C929.9,101.7,843,188.6,843,295.8z"/>
	<path class="st0" d="M187.2,80.9c-7.6,0-13.7-6.1-13.7-13.7c0-7.6,6.1-13.7,13.7-13.7c7.6,0,13.7,6.1,13.7,13.7c0,0,0,0,0,0
		C200.9,74.7,194.8,80.9,187.2,80.9z M187.2,55.8c-6.3,0-11.4,5.1-11.4,11.4s5.1,11.4,11.4,11.4s11.4-5.1,11.4-11.4
		C198.7,60.9,193.5,55.8,187.2,55.8z"/>
	<path class="st0" d="M797,436.4h-22.5v-22.5H797V436.4z M776.2,434.7h19.1v-19.1h-19.1L776.2,434.7z"/>
	<path class="st0" d="M259.7,416l-15.4-16.5l16.5-15.4l15.4,16.5L259.7,416z M246.8,399.6l13,14l14-13l-13-14L246.8,399.6z"/>
	<path class="st0" d="M774.9,569.4c-24.7-3.9-48.4-7.2-71.2-9.9l8.8-17.6c-3-1-16.3,9.1-16.3,9.1l11.2-50.8
		c-15.2,2-22.3,53.8-22.3,53.8l-17.3-17.3l8.5,19.5c-69.8-7.3-130-9.6-180.6-9.1l7.5-15c-3-1-16.3,9.1-16.3,9.1l11.2-50.8
		c-15.2,2-22.3,53.8-22.3,53.8l-17.3-17.3l9,20.7c-34.7,1-69.2,3.8-103.6,8.3c7.5-23.4,33.7-45.8,33.7-45.8
		c-20.1,6.3-30.6,16.5-36,25.9c-1.1-48,6.3-95.8,21.8-141.2c0,0-40.6,91.4-34.5,152.4l0.8,10.8c-35.3,5.5-53.1,11-53.1,11
		L774.9,569.4z"/>
	<circle class="st1" cx="524.4" cy="287.9" r="158.8"/>
	<polygon class="st2" points="459.2,85.9 353.5,214.1 510,398.8 614.3,276.2 	"/>
	<polygon class="st3" points="459.2,85.9 353.5,214.1 510,398.8 614.3,276.2 	"/>
	<path class="st4" d="M357.7,215.5L357.7,215.5c2.3-4.2,5.2-8.1,8.6-11.5l97.1-98.4c0,0,33.8-5.6,40.9,11.3l-124,101.5L357.7,215.5z
		"/>
	<path class="st2" d="M352.8,213.4l143.8,219.9c0,0,14.1,9.9,28.2,4.2l147.3-99.4L515.6,101.4l-141,109.9L352.8,213.4z"/>
	
		<rect x="398" y="167.9" transform="matrix(0.8121 -0.5835 0.5835 0.8121 -13.4011 296.4521)" class="st0" width="111.1" height="2.3"/>
	
		<rect x="463.7" y="207.6" transform="matrix(0.8341 -0.5517 0.5517 0.8341 -96.5924 308.7032)" class="st0" width="2.3" height="214.6"/>
	
		<rect x="526.6" y="373.7" transform="matrix(0.8055 -0.5926 0.5926 0.8055 -108.123 420.2419)" class="st0" width="119" height="2.3"/>
	
		<rect x="574.4" y="120.2" transform="matrix(0.8208 -0.5713 0.5713 0.8208 -26.8293 369.5423)" class="st0" width="2.3" height="214.7"/>
	
		<rect x="346.3" y="155.2" transform="matrix(0.7367 -0.6762 0.6762 0.7367 5.662 326.3604)" class="st0" width="151.4" height="1.4"/>
	
		<rect x="351" y="156.4" transform="matrix(0.7497 -0.6618 0.6618 0.7497 3.3746 323.0576)" class="st0" width="155.5" height="1.4"/>
	
		<rect x="355" y="157.4" transform="matrix(0.7681 -0.6403 0.6403 0.7681 -0.6589 314.4026)" class="st0" width="157.5" height="1.4"/>
	<path class="st5" d="M952.1,295.8c-6.5-2.4-14.5-6.5-19.5-10.9l3.5,9.7h-62.8v2.3h62.8l-3.5,9.7
		C937.6,302.4,945.6,298.2,952.1,295.8z"/>
	<path class="st5" d="M167.7,294.7h-62.8l3.5-9.7c-5,4.4-13,8.5-19.5,10.9c6.5,2.4,14.5,6.5,19.5,10.9l-3.5-9.7h62.8L167.7,294.7z"
		/>
</g>
<g id="Слой_2">
	<polygon class="st3" points="14.2,225.8 -22.9,270.9 32,335.7 68.6,292.6 	"/>
	<path class="st4" d="M-21.4,271.4L-21.4,271.4c0.8-1.5,1.8-2.8,3-4l34.1-34.5c0,0,11.9-2,14.3,4l-43.5,35.6L-21.4,271.4z"/>
	<path class="st2" d="M-23.2,270.6l50.5,77.2c0,0,4.9,3.5,9.9,1.5l51.7-34.9L34,231.3l-49.5,38.6L-23.2,270.6z"/>
	
		<rect x="-7.3" y="254.6" transform="matrix(0.8121 -0.5835 0.5835 0.8121 -146.5272 55.0401)" class="st0" width="39" height="0.8"/>
	
		<rect x="15.8" y="268.6" transform="matrix(0.8341 -0.5517 0.5517 0.8341 -166.2559 59.7246)" class="st0" width="0.8" height="75.3"/>
	
		<rect x="37.8" y="326.9" transform="matrix(0.8055 -0.5926 0.5926 0.8055 -182.5237 98.4468)" class="st0" width="41.8" height="0.8"/>
	
		<rect x="54.6" y="237.9" transform="matrix(0.8208 -0.5713 0.5713 0.8208 -147.558 80.8002)" class="st0" width="0.8" height="75.3"/>
	
		<rect x="-25.5" y="250.2" transform="matrix(0.7367 -0.6762 0.6762 0.7367 -169.0364 66.6635)" class="st0" width="53.1" height="0.5"/>
	
		<rect x="-23.8" y="250.6" transform="matrix(0.7497 -0.6618 0.6618 0.7497 -165.1316 65.086)" class="st0" width="54.6" height="0.5"/>
	<polygon class="st3" points="996.3,221.3 959.1,266.4 1014.1,331.2 1050.7,288.1 	"/>
	<path class="st4" d="M960.6,266.9L960.6,266.9c0.8-1.5,1.8-2.8,3-4l34.1-34.5c0,0,11.9-2,14.3,4l-43.5,35.6L960.6,266.9z"/>
	<path class="st2" d="M958.9,266.1l50.5,77.2c0,0,4.9,3.5,9.9,1.5l51.7-34.9l-54.9-83.1l-49.5,38.6L958.9,266.1z"/>
	
		<rect x="974.8" y="250.1" transform="matrix(0.8121 -0.5835 0.5835 0.8121 40.6435 627.2841)" class="st0" width="39" height="0.8"/>
	
		<rect x="997.8" y="264.1" transform="matrix(0.8341 -0.5517 0.5517 0.8341 -0.8195 600.7582)" class="st0" width="0.8" height="75.3"/>
	
		<rect x="1019.9" y="322.4" transform="matrix(0.8055 -0.5926 0.5926 0.8055 11.177 679.5856)" class="st0" width="41.8" height="0.8"/>
	
		<rect x="1036.7" y="233.4" transform="matrix(0.8208 -0.5713 0.5713 0.8208 31.0226 641.0151)" class="st0" width="0.8" height="75.3"/>
	
		<rect x="956.6" y="245.7" transform="matrix(0.7367 -0.6762 0.6762 0.7367 92.532 729.5311)" class="st0" width="53.1" height="0.5"/>
	
		<rect x="958.3" y="246.1" transform="matrix(0.7497 -0.6618 0.6618 0.7497 83.6855 713.9171)" class="st0" width="54.6" height="0.5"/>
</g>
</svg>
