<?xml version="1.0" encoding="utf-8"?>
<!-- Generator: Adobe Illustrator 24.1.0, SVG Export Plug-In . SVG Version: 6.00 Build 0)  -->
<svg version="1.1" id="_x38_d45fc85-8f50-4d13-8ede-4efe67a9dde5"
	 xmlns="http://www.w3.org/2000/svg" xmlns:xlink="http://www.w3.org/1999/xlink" x="0px" y="0px" viewBox="0 0 1078.5 1345.8"
	 style="enable-background:new 0 0 1078.5 1345.8;" xml:space="preserve">
<style type="text/css">
	.st0{fill:#E8EAF8;}
	.st1{opacity:0.1;fill:#6C63FF;enable-background:new    ;}
	.st2{fill:#6C63FF;}
	.st3{opacity:0.4;fill:#FFFFFF;enable-background:new    ;}
	.st4{fill:none;stroke:#535461;stroke-miterlimit:10;}
	.st5{fill:none;stroke:#535461;stroke-width:2;stroke-miterlimit:10;}
	.st6{fill:#FC6681;}
	.st7{fill:#FFD037;}
	.st8{opacity:0.1;enable-background:new    ;}
	.st9{fill:url(#SVGID_1_);}
	.st10{fill:#E2E2EC;}
	.st11{fill:#F1F2FB;}
	.st12{opacity:0.1;fill:none;stroke:#000000;stroke-width:4;stroke-miterlimit:10;enable-background:new    ;}
	.st13{fill:url(#SVGID_2_);}
	.st14{fill:#FDC2CC;}
	.st15{fill:#5F5D7E;}
	.st16{opacity:0.15;enable-background:new    ;}
	.st17{fill:#D39999;}
	.st18{fill:#865A61;}
</style>
<ellipse transform="matrix(0.9908 -0.1353 0.1353 0.9908 -155.1972 120.4702)" class="st0" cx="808.6" cy="1201.9" rx="85.2" ry="31.9"/>
<path class="st1" d="M912.8,545.7c-32.5,53.1-26.7,125.2-12.8,182.1c4.7,19,10,39.1,5.9,60.5c-5.1,26.1-23.2,46.6-41.5,58.4
	c-33.4,21.5-71.5,21-99-1.1c-23.8-19.2-39.5-52.7-63.8-70.8c-40.8-30.3-96.9-11.6-145.7,17.1c-34.5,20.3-72.6,46-104.3,31.7
	c-22.4-10.1-36.2-38.7-42.6-70c-3.1-15.1-4.9-31.5-12.1-43c-4.3-6.8-10.1-11.4-16.3-15.1c-55.7-34-131.4-5-185.1-43.5
	c-36.3-26-56.7-79.9-63.3-137.6c-6.5-57.7-0.8-119.5,6.5-180.4c5.2-43.3,12.1-89.6,34.6-124.9c23.8-37.3,61.2-54.1,93.5-50.7
	c32.4,3.3,60.4,24.1,84.6,49.5c30.2,31.7,57.3,72.3,96.5,82.4c26.7,6.9,55.9-1.3,84.3-6c47.5-7.9,94.2-5.9,140.7-3.2
	c44.4,2.6,89.2,5.8,130.5,21.5c29.3,11.1,51.7,34.5,79,49.6c17.8,9.9,37.9,11,54.5,24.2c20.4,16.2,38,46.3,29.6,84.4
	C958.6,496.9,930.1,517.6,912.8,545.7z"/>
<path class="st2" d="M294.3,525.4c0,0-147.1-32.9,40.1-225.4c0,0,80.7,76.5,51.1,171.6c-11.9,38.2-50.2,61.8-89,54.3L294.3,525.4z"
	/>
<path class="st3" d="M306.8,383.5c-3.1-0.7-137.1-34.4,38.2-214.6c0,0,76.8,72.8,48.6,163.3c-11.3,36.4-47.8,58.9-84.7,51.7
	L306.8,383.5z"/>
<path class="st4" d="M308.6,384.6c0,0,74-111.5,36.3-215.6"/>
<path class="st5" d="M883,491.8c0,0-24.1-97.2,12.4-166.4c15.4-29,21.5-62.1,16.3-94.6c-2.5-15.4-6.3-30.5-11.6-45.2"/>
<path class="st2" d="M941.7,271.5c-0.5,12.4-24.4,47.2-24.4,47.2s-20.8-36.8-20.3-49.1c0.8-12.3,11.4-21.7,23.8-21
	C932.7,249.4,941.9,259.5,941.7,271.5z"/>
<path class="st2" d="M975.7,341.5c-7.2,10.1-46.2,26.4-46.2,26.4s2.5-42.2,9.7-52.3c6.9-10.2,20.9-12.9,31.1-6
	c10.2,6.9,12.9,20.9,6,31.1C976.1,341,975.9,341.2,975.7,341.5L975.7,341.5z"/>
<path class="st2" d="M969.1,458.4c-11.3,5.1-53.2-0.5-53.2-0.5s23.5-35.2,34.7-40.3c11.4-4.9,24.5,0.4,29.4,11.8
	C984.8,440.4,980,453.2,969.1,458.4z"/>
<path class="st2" d="M944.2,545.7c-10.2,6.9-52.5,8.4-52.5,8.4s17.2-38.6,27.4-45.6c10.4-6.7,24.2-3.8,31,6.6
	C956.6,525.3,954,538.8,944.2,545.7z"/>
<path class="st2" d="M882.4,368.3c8.5,9,49.4,19.7,49.4,19.7s-8.4-41.4-16.8-50.4c-8.7-8.8-22.8-9-31.7-0.3
	C874.7,345.7,874.3,359.4,882.4,368.3z"/>
<path class="st2" d="M854.6,470.8c10.8,6,53,4,53,4s-20.3-37.1-31.1-43.1c-10.9-5.8-24.5-1.6-30.3,9.3
	C840.6,451.6,844.3,464.7,854.6,470.8z"/>
<path class="st2" d="M841.2,574.1c9.6,7.8,51.6,12.9,51.6,12.9s-13.8-40-23.4-47.7c-9.8-7.6-23.8-5.8-31.4,4
	C830.5,552.7,832,566.3,841.2,574.1z"/>
<path class="st6" d="M923,141.8c-0.5,11.8-23.3,45-23.3,45s-19.8-35-19.3-46.8c0.7-11.8,10.9-20.7,22.6-19.9
	C914.5,120.7,923.3,130.4,923,141.8z"/>
<path class="st6" d="M955.5,208.5c-6.8,9.6-44,25.1-44,25.1s2.4-40.2,9.2-49.8c6.6-9.7,19.9-12.3,29.6-5.7
	c9.7,6.6,12.3,19.9,5.7,29.6C955.8,208,955.6,208.2,955.5,208.5L955.5,208.5z"/>
<path class="st6" d="M949.2,319.8c-10.7,4.8-50.6-0.5-50.6-0.5s22.3-33.5,33.1-38.3c10.8-4.6,23.4,0.4,28,11.2
	C964.1,302.6,959.5,314.8,949.2,319.8z"/>
<path class="st6" d="M944.2,545.7c-10.2,6.9-52.5,8.4-52.5,8.4s17.2-38.6,27.4-45.6c10.4-6.7,24.2-3.8,31,6.6
	C956.6,525.3,954,538.8,944.2,545.7z"/>
<path class="st6" d="M866.7,234c8.1,8.6,47,18.7,47,18.7s-8-39.5-16-48c-8.2-8.4-21.7-8.5-30.2-0.3C859.3,212.4,859,225.5,866.7,234
	z"/>
<path class="st6" d="M840.2,331.5c10.3,5.7,50.5,3.8,50.5,3.8s-19.4-35.3-29.6-41c-10.4-5.5-23.3-1.5-28.8,8.9
	C826.8,313.2,830.4,325.7,840.2,331.5z"/>
<path class="st6" d="M841.2,574.1c9.6,7.8,51.6,12.9,51.6,12.9s-13.8-40-23.4-47.7c-9.8-7.6-23.8-5.8-31.4,4
	C830.5,552.7,832,566.3,841.2,574.1z"/>
<path class="st5" d="M794.6,429c0,0,101.3-84.8,123.8-127.6s51.2-79.7,51.2-79.7"/>
<path class="st2" d="M976.6,455.9l-46-10.4C930.6,445.5,941.4,494,976.6,455.9z"/>
<path class="st2" d="M889.3,270.1l25.2,37.8C914.5,307.9,865.3,311.5,889.3,270.1z"/>
<path class="st2" d="M994.7,418.6l-42.1-7.4C952.6,411.2,979.1,451.4,994.7,418.6z"/>
<path class="st2" d="M914.3,248.1l19.8,25.8C934.1,274,899.1,277.3,914.3,248.1z"/>
<path class="st2" d="M954.2,243c0,0,34.1,1.6,38.1,4.9c4,3.3-5.1,22.4-18.1,19.2C961.2,264,954.2,243,954.2,243z"/>
<path class="st2" d="M940.6,212.5c0,0,13.9,25.4,13.4,30.2s-21.2,10.3-25.4-8C924.4,216.4,940.6,212.5,940.6,212.5z"/>
<circle class="st7" cx="977.2" cy="226.1" r="9.5"/>
<circle class="st7" cx="962.3" cy="216.4" r="9.5"/>
<path class="st2" d="M339.7,450.8c0,0,40.9-30.5-10.5-137.1c0,0-68.5-84.7,0-164.7c0,0-149.5,3.8-146.6,142.8s74.7,159,74.7,159
	H339.7z"/>
<path class="st5" d="M301.4,450.8c0,0-10.3-73.3-37.9-118c-5.5-9-9.4-18.9-11.6-29.3c-9.2-40.6,3.9-83,33.7-112.1l43.6-42.4"/>
<path class="st2" d="M424.9,206.1c0,0,9.4,12.3-4.3,30.9s-25.1,34.3-20.5,45.8c0,0,20.7-34.5,37.6-35
	C454.6,247.3,443.5,226.8,424.9,206.1z"/>
<path class="st8" d="M424.9,206.1c0.8,1.2,1.5,2.5,1.9,3.9c16.5,19.3,25.2,37.4,9.4,37.9c-14.7,0.4-32.4,26.8-36.7,33.4
	c0.1,0.5,0.3,1,0.5,1.5c0,0,20.7-34.5,37.6-35C454.6,247.3,443.5,226.8,424.9,206.1z"/>
<path class="st7" d="M442.4,221.7c0,4.3-0.5,7.8-1.1,7.8s-1.1-3.5-1.1-7.8s0.6-2.3,1.2-2.3S442.4,217.4,442.4,221.7z"/>
<path class="st7" d="M448.4,226.9c-3.8,2.1-7.1,3.3-7.4,2.8s2.6-2.6,6.4-4.7c3.8-2.1,2.3-0.6,2.6,0
	C450.2,225.6,452.2,224.8,448.4,226.9z"/>
<path class="st2" d="M375.3,206.1c0,0-9.4,12.3,4.3,30.9c13.7,18.6,25.1,34.3,20.5,45.8c0,0-20.7-34.5-37.6-35
	C345.6,247.3,356.7,226.8,375.3,206.1z"/>
<path class="st8" d="M375.3,206.1c-0.8,1.2-1.5,2.5-1.9,3.9c-16.5,19.3-25.2,37.4-9.4,37.9c14.7,0.4,32.4,26.8,36.7,33.4
	c-0.1,0.5-0.3,1-0.5,1.5c0,0-20.8-34.5-37.6-35C345.6,247.3,356.7,226.8,375.3,206.1z"/>
<path class="st7" d="M357.8,221.7c0,4.3,0.5,7.8,1.1,7.8s1.1-3.5,1.1-7.8s-0.6-2.3-1.2-2.3C358.1,219.4,357.8,217.4,357.8,221.7z"/>
<path class="st7" d="M351.8,226.9c3.8,2.1,7.1,3.3,7.4,2.8s-2.6-2.6-6.4-4.7c-3.8-2.1-2.3-0.6-2.6,0
	C349.9,225.6,348,224.8,351.8,226.9z"/>
<linearGradient id="SVGID_1_" gradientUnits="userSpaceOnUse" x1="600.7" y1="326.378" x2="600.7" y2="-176.1145" gradientTransform="matrix(1 0 0 1 -60.75 426.422)">
	<stop  offset="0" style="stop-color:#808080;stop-opacity:0.25"/>
	<stop  offset="0.54" style="stop-color:#808080;stop-opacity:0.12"/>
	<stop  offset="1" style="stop-color:#808080;stop-opacity:0.1"/>
</linearGradient>
<path class="st9" d="M1053.3,734.3l-83.4-367h-31c-1.2-14-2.1-27.6-2.4-40.4c0,0-112.3,24.6-201.9-46.5s-194.9,6.1-194.9,6.1
	l-0.4-0.3v-0.1v0.2c-7.3-5.2-108.2-74.3-194.5-5.8C255.3,351.6,143,327,143,327c-0.3,13-1.2,26.7-2.4,40.8h-28.7L26.6,735.7
	c0,0,346.2,13,467.6,1c4.4,9.2,23.1,16.1,45.6,16.1c25.2,0,45.8-8.7,46.5-19.6C680.7,740.4,883.9,751.8,1053.3,734.3z"/>
<path class="st10" d="M120.7,370.6L37.3,730.8c0,0,459,17.2,496-6.9c0,0,285,28.8,509.3,5.6l-81.7-359.3L120.7,370.6z"/>
<path class="st8" d="M149.1,383L71.3,718.8c0,0,427.9,16,462.4-6.4c0,0,265.7,26.8,474.8,5.2l-76.2-335L149.1,383z"/>
<path class="st11" d="M928.3,330.6c0,0-110,24.1-197.7-45.6s-190.8,6-190.8,6s-103.1-75.6-190.8-6s-197.7,45.6-197.7,45.6
	c-3.5,140.1-68.8,367-68.8,367s120.3,32.7,279.4-33.5s177.9,23.2,177.9,23.2s18.9-89.4,177.9-23.2s279.4,33.5,279.4,33.5
	S931.7,470.7,928.3,330.6z"/>
<path class="st8" d="M327.4,690c0,0,145.3-32.7,212.3,15.5c0,0,64.5-58.5,214-12.9"/>
<ellipse class="st0" cx="539.7" cy="727.8" rx="45.6" ry="19.8"/>
<path class="st8" d="M539.3,290.7c0,0,32.7,165.9,0.9,399.7"/>
<path class="st12" d="M182.7,382.6c0,0,68.4,15.9,127.6,0s168-67.9,203.7,0"/>
<path class="st12" d="M182.7,411.9c0,0,68.4,15.9,127.6,0s187.5-15,203.7,0"/>
<path class="st12" d="M182.7,463.4c0,0,68.4,15.9,127.6,0s168-67.9,203.7,0"/>
<path class="st12" d="M182.7,492.7c0,0,68.4,15.9,127.6,0s187.5-15,203.7,0"/>
<path class="st12" d="M896.8,382.6c0,0-68.4,15.9-127.6,0c-59.2-15.9-168-67.9-203.7,0"/>
<path class="st12" d="M896.8,411.9c0,0-68.4,15.9-127.6,0c-59.2-15.9-187.5-15-203.7,0"/>
<path class="st12" d="M896.8,463.4c0,0-68.4,15.9-127.6,0c-59.2-15.9-168-67.9-203.7,0"/>
<path class="st12" d="M896.8,492.7c0,0-68.4,15.9-127.6,0c-59.2-15.9-187.5-15-203.7,0"/>
<linearGradient id="SVGID_2_" gradientUnits="userSpaceOnUse" x1="1833.2267" y1="782.9968" x2="1833.2267" y2="138.4219" gradientTransform="matrix(-1 0 0 1 2638.25 426.422)">
	<stop  offset="0" style="stop-color:#808080;stop-opacity:0.25"/>
	<stop  offset="0.54" style="stop-color:#808080;stop-opacity:0.12"/>
	<stop  offset="1" style="stop-color:#808080;stop-opacity:0.1"/>
</linearGradient>
<path class="st13" d="M743.1,817c0,0,0.2,1.4,0.7,4c-0.2,0.4-0.4,0.8-0.7,1.2c-8.2,13.8-9.5,33.7-8.7,50c0.7,13.2,3,26.2,6.9,38.8
	c4.7,16.4,7,33.4,7,50.4c3.2,3.5,7.1,6.3,11.5,8.4c0.2,0.7,0.5,1.3,0.7,2c3.8,12.6,6.3,25.5,7.6,38.6l2.6,32.7
	c0,0,19.8,73.9,25.8,87.7c4.3,9.8,3.3,30,2.4,40.8c-2.6,7.3-5.7,14.2-8.5,15c-5,1.4-10,13.5-2.7,19.5l0,0c0.5,0.5,1.1,0.9,1.8,1.2
	l0.3,0.2l0.5,0.3l0.8,0.3l0.4,0.2l0.8,0.3l0.4,0.1c0.4,0.1,0.8,0.2,1.2,0.3c5.1,1,10.3,0.2,14.8-2.3c5.5-0.8,10.3-3.8,14-6.7
	l-0.1,5.2h6l-0.3-10.4c1.1-1.2,1.7-2,1.7-2s0.2-6.3,0.9-13.6l-0.4,23.5h6l-1.6-43.3c0.3-0.6,0.7-1.2,1.2-1.8c5-5-3.6-21.1-8.1-23.8
	c2-10.6,9.6-25.9,18.4-55.3c12.9-43-3.4-85.1-3.4-85.1v-33c4.3-1.9,6.9-3.1,6.9-3.1s-6-35.2,0-60.2c3.9-16.1,4.9-30.4,1.7-44.1
	c4.3-14.9,7.8-26.4,7.8-26.4l6-61.9c1.5-9.3,2.6-17.2,3.2-24c0.1-0.8,0.2-1.7,0.2-2.5c1.1-12.6,0.9-21,0.1-26.5
	c0.3-2.5,0.5-5.1,0.4-7.6c0.1-1.3,0.2-2.6,0.2-3.9c0.9-1,1.7-2,2.5-3c2.1-2.6,3.9-5.5,5.4-8.6c6.6-12.5,6.8-27.7-2.4-38.7
	c-5.7-6.8-7.5-14.1-12.4-21.3c-4.5-6.6-5.3-14.5-6.4-22.1c-1.3-9.4-3.2-18.8-5.5-28.1c-0.7-2.7-4.5-4.4-6.3-6.7
	c-3.6-4.4-14.2-4.2-20.3-5.2c-10.3-1.6-21.4-3.1-30.7,0.9c-6.5,2.8-11.2,7.9-16.2,12.4c-5.5,4.9-16.7,7.2-18.4,13
	c-1.5,2.2-1.6,5,1,8.7c2.5,3.6,6.5,6.1,10.3,8.8c0.5,0.3,0.9,0.7,1.4,1c-2.6,15.8,5.5,31.5,19.8,38.6c-0.1,0.7-0.2,1.3-0.3,1.9
	c-1.1,5.6-2.6,11.1-4.5,16.5c-1.1,3.3-14,9.1-23,12.8c-1-1.1-2.3-1.9-3.7-2.5c-6.9-1.7-30.1,11.2-31.8,15.5
	c-0.5,1.2,0.8,4.5,2.8,8.7c0.1,1.9,0.4,3.8,0.9,5.6c-0.5,8.8,0.4,23,4.8,45.8L743.1,817z M839.6,826.7c-0.3-0.6-0.7-1.2-1-1.9
	c-9.5-19.3-15.2-50.5-1.5-69.1c1.2,0.1,2.4,0.2,3.7,0.3c0.8,25.3,0.3,67,0.3,67S840.5,824.4,839.6,826.7L839.6,826.7z M805.5,973.9
	c1.9,9.8,4.2,21.1,6.3,31.4c2.5,12,2.4,24.4-0.5,36.3l-8.1-24.2l-1.9-42.7l-0.1-1.8c1.3-0.2,2.6-0.5,3.9-0.7L805.5,973.9z"/>
<path class="st14" d="M811.7,1005.8c2.5,11.8,2.3,24-0.5,35.8c-0.5,2.2-1.2,4.4-2,6.5l2.3,92.7l0.3,10.5c2.1,0.4,4.2,0.8,6.4,0.9
	c2,0.2,4,0.2,6,0s3.8-0.8,4.7-2s1.1-3-0.2-5.7c-1.5-3-2-6.3-1.6-9.6c0.1-0.9,0.2-1.9,0.4-2.9c2-10.4,9.5-25.5,18.1-54.4
	c12.7-42.3-3.4-83.7-3.4-83.7V955l-41.5-4.2c0,0,2,10.5,4.8,24.1C807.4,984.5,809.6,995.6,811.7,1005.8z"/>
<path class="st8" d="M811.7,1003.4c2.5,11.8,2.3,24-0.5,35.8c-0.5,2.2-1.2,4.4-2,6.5l2.3,92.7l0.3,10.5c2.1,0.4,4.2,0.8,6.4,0.9
	c2,0.2,4,0.2,6,0s3.8-0.8,4.7-2s1.1-3-0.2-5.7c-1.5-3-2-6.3-1.6-9.6c0.1-0.9,0.2-1.9,0.4-2.9c2-10.4,9.5-25.5,18.1-54.4
	c12.7-42.3-3.4-83.7-3.4-83.7v-38.9l-41.5-4.2c0,0,2,10.5,4.8,24.1C807.4,982.1,809.6,993.2,811.7,1003.4z"/>
<path class="st14" d="M754.2,952.6c2.7,5.8,5,11.7,6.9,17.8c3.7,12.4,6.2,25.1,7.5,38l2.5,32.1c0,0,19.5,72.8,25.4,86.3
	c4.2,9.6,3.3,29.5,2.4,40.2c-0.4,4.3-0.7,7.2-0.7,7.2l8.6-10.6l11.3-13.9l5.2-6.3l1.1-1.4c-1.4-2.8-2.5-5.8-3.3-8.8l0,0
	c-2.6-9.3-4.3-18.8-5.2-28.3c-2.5-26.2-3.4-61.8-3.4-61.8l-1.3-4l-8-23.9l-1.8-42l-0.7-15.5L754.2,952.6z"/>
<path class="st15" d="M822.9,1135.1c-4.6,5.9-8,12.7-10.1,19.9c-2.7,9.2-7.4,23.2-11.4,24.3c-5.9,1.7-11.8,18.6,3.4,22
	s27.9-13.5,27.9-13.5s0.8-29.6,5.9-34.7c5.1-5.1-4.2-22-8.5-23.7C828.6,1128.7,825.7,1131.5,822.9,1135.1z"/>
<path class="st8" d="M796.5,1198.8c4,0.8,8.1,0.5,11.9-1.1c9.5-3.8,15.9-12.6,16.6-22.8c0.7-9.1,2.2-21.2,5.3-24.3
	c4-4-1-15.4-5.3-20.8c0.6-0.4,1.3-0.5,1.9-0.3c4.2,1.7,13.5,18.6,8.5,23.7c-5.1,5.1-5.9,34.7-5.9,34.7s-12.7,16.9-27.9,13.5
	c-2.2-0.4-4.3-1.4-6.1-2.8C795.9,1198.6,796.2,1198.7,796.5,1198.8z"/>
<path class="st15" d="M834.1,1154.4l1.6,43.7h-5.9l0.8-43.7c0-0.9,0.8-1.6,1.7-1.6l0,0C833.3,1152.8,834.1,1153.5,834.1,1154.4z"/>
<path class="st16" d="M834.2,1153.8l1.6,43.7h-5.9l0.8-43.7c0-0.9,0.8-1.6,1.7-1.6l0,0C833.4,1152.2,834.2,1152.9,834.2,1153.8z"/>
<path class="st15" d="M812,1137.6c-4.6,5.9-8,12.7-10.1,19.9c-2.7,9.2-7.4,23.2-11.4,24.3c-5.9,1.7-11.8,18.6,3.4,22
	s27.9-13.6,27.9-13.6s0.8-29.6,5.9-34.7c5.1-5.1-4.2-22-8.5-23.7C817.6,1131.3,814.8,1134.1,812,1137.6z"/>
<path class="st8" d="M788.9,1201.3c4,0.8,8.1,0.5,11.9-1.1c9.5-3.8,15.9-12.6,16.6-22.8c0.7-9.1,2.2-21.2,5.3-24.3
	c4-4-1-15.4-5.3-20.8c0.6-0.4,1.3-0.5,1.9-0.3c4.2,1.7,13.5,18.6,8.5,23.7c-5.1,5.1-5.9,34.7-5.9,34.7s-12.7,16.9-27.9,13.5
	c-2.2-0.4-4.3-1.4-6.1-2.8C788.3,1201.2,788.6,1201.3,788.9,1201.3z"/>
<path class="st15" d="M828.3,1156.3l1.6,43.7h-6l0.8-43.7c0-0.9,0.8-1.6,1.7-1.6l0,0C827.5,1154.7,828.2,1155.4,828.3,1156.3z"/>
<path class="st16" d="M827,1160.6l1.6,43.7h-6l0.8-43.7c0-0.9,0.8-1.6,1.7-1.6l0,0C826.2,1159,826.9,1159.7,827,1160.6z"/>
<path class="st14" d="M755.1,687.8l33.8,53.3l39.8,5.1c0,0,24.5-48.2,23.7-50.8c-0.8-2.5-13.5-7.6-25.4-16.9
	c-11.8-9.3,2.5-48.2,2.5-48.2l-38.9,3.4c0.2,0.5,0.3,1,0.4,1.6c1.5,6.6,1,13.9-0.2,20.3c-1.1,5.5-2.6,10.9-4.5,16.2
	C784.7,676.8,755.1,687.8,755.1,687.8z"/>
<path class="st8" d="M795.7,736.4c0,0,2,10.5,4.8,24.1c12.6-2.7,24.9-6.6,36.7-11.7v-8.2L795.7,736.4z"/>
<path class="st8" d="M749.2,740.6c2.7,5.8,5,11.7,6.9,17.8c11.8,5.3,26.4,5.2,40.3,2.8l-0.7-15.5L749.2,740.6z"/>
<path class="st17" d="M744.1,823.2c-8.1,13.6-9.3,33.1-8.5,49.3c0.7,13,3,25.8,6.8,38.2c4.6,16.1,6.9,32.8,6.9,49.6
	c28.8,31.3,99.8-4.2,99.8-4.2s-5.9-34.7,0-59.2c4.1-17.1,5-32.1,0.8-46.5c-1.9-6.6-4.8-12.9-8.4-18.6c-1.1-1.8-2.2-3.8-3.3-5.9
	c-9.8-19.8-15.5-52.4,0.3-70.3c1.6-1.9,3.5-3.5,5.5-5c13.7-10,20-21,22.6-30.3c1.7-5.8,2-11.9,1-17.9c-1.7-9.3-25.4-17.8-25.4-17.8
	c0.8,27.9-34.7,51.6-34.7,51.6s-40.6-52.5-47.4-54.1s-29.6,11-31.3,15.2s18.6,35.5,18.6,35.5S760.1,796.1,744.1,823.2z"/>
<path class="st8" d="M791.5,731.3c5.9,17.8,35.5-13.5,36.4-27.1c0.5-8.7,10.1-42.6,16.9-65.9c-1.9-6.6-4.8-12.9-8.4-18.6
	c-1.1-1.8-2.2-3.8-3.3-5.9c-3.2,7.9-16.1,40.2-15.3,49.8c0.8,11-5.1,27.1-5.1,27.1S785.6,713.5,791.5,731.3z"/>
<path class="st14" d="M864.2,703.9c0,0,9.3,5.9,0,62.6l-5.9,60.9c0,0-22.8,75.3-23.7,88.8s-30.5,44.8-36.4,27.1s21.2-40.6,21.2-40.6
	s5.9-16.1,5.1-27.1s16.1-51.6,16.1-51.6s0.8-74.4-1.7-83.8S864.2,703.9,864.2,703.9z"/>
<path class="st8" d="M735.6,696.7c0,0-11,2.5,0,59.2l6.8,61.8c0,0,15.2,88.8,14.4,99s33,36.4,35.5,22s-16.9-38.1-16.9-38.1
	s-8.5-18.6-8.5-53.3l-1.7-27.9l-11.8-100.7L735.6,696.7z"/>
<path class="st14" d="M737.3,697.1c0,0-11,2.5,0,59.2l6.8,61.8c0,0,15.2,88.8,14.4,99s33,36.4,35.5,22S777,901,777,901
	s-8.5-18.6-8.5-53.3l-1.7-27.9L755,719.1L737.3,697.1z"/>
<path class="st8" d="M726.8,699.2c0,0-5.1,27.1,30.5,36.4s-4.2-32.2-4.2-32.2S739.5,683.2,726.8,699.2z"/>
<path class="st17" d="M732.6,699.3c0,0-5.1,27.1,30.5,36.4s-4.2-32.2-4.2-32.2S745.3,683.2,732.6,699.3z"/>
<path class="st8" d="M865,724.9c0,0,5.1,27.1-30.5,36.4s4.2-32.2,4.2-32.2S852.3,708.8,865,724.9z"/>
<path class="st17" d="M867.2,699.3c0,0,5.1,27.1-30.5,36.4s4.2-32.2,4.2-32.2S854.5,683.2,867.2,699.3z"/>
<circle class="st14" cx="807.1" cy="621.4" r="36"/>
<path class="st8" d="M758.9,604.2c2.5,3.5,6.4,6,10.1,8.7c4.5,3.2,8.8,6.8,12.8,10.7c2.8,2.6,5.2,5.6,7.2,8.9
	c2.8,5.3,3.2,11.3,3.6,17.2l3.5,60.5c0.2,4,0.5,8.1-0.6,12c-1,3.3-2.5,6.5-4.3,9.5c-4.6,8.2-9.3,16.5-16.8,23
	c-2.5,2.2-5.5,4.9-4.2,7.8c1.1,2.3,4.3,3,7.1,3.3c11.8,1.6,24.8,2.9,34.7-2.8c3.7-2.2,6.8-5.3,11-6.6c5.8-1.8,12.2,0.1,18.4,0.1
	c6.6,0,12.9-2.2,19-4.3c1.2-0.3,2.3-0.9,3.1-1.8c0.5-0.7,0.8-1.5,0.9-2.4c0.9-4.9,1.8-10,0.3-14.8c-1.7-5.2-6-9.7-6.5-15.1
	c-0.6-7.5,6.3-13.6,11.2-19.7c10.6-13.1,12.9-31.9,2.1-44.9c-5.6-6.7-7.3-13.8-12.2-20.9c-4.4-6.5-5.3-14.3-6.3-21.8
	c-1.3-9.3-3.1-18.5-5.4-27.6c-0.7-2.7-4.4-4.3-6.2-6.5c-3.6-4.3-14-4.1-20-5.1c-10.1-1.6-21-3.1-30.2,0.9c-6.4,2.8-11,7.8-16,12.2
	C768.1,590.9,750.9,592.9,758.9,604.2z"/>
<path class="st18" d="M761,604.2c2.5,3.5,6.4,6,10.1,8.7c4.5,3.3,8.8,6.8,12.8,10.8c2.8,2.6,5.2,5.6,7.2,8.9
	c2.8,5.3,3.2,11.3,3.6,17.2l3.5,60.5c0.2,4,0.5,8.1-0.6,12c-1,3.3-2.5,6.5-4.3,9.5c-4.6,8.2-9.3,16.5-16.8,23
	c-2.5,2.2-5.5,4.9-4.2,7.8c1.1,2.3,4.3,3,7.1,3.3c11.8,1.6,24.8,2.9,34.7-2.8c3.7-2.2,6.8-5.3,11-6.6c5.8-1.8,12.2,0.1,18.4,0.1
	c6.6,0,12.9-2.2,19-4.3c1.2-0.3,2.3-0.9,3.1-1.8c0.5-0.7,0.8-1.5,0.9-2.4c0.9-4.9,1.8-10,0.3-14.8c-1.7-5.2-6-9.7-6.5-15.1
	c-0.6-7.5,6.3-13.6,11.2-19.7c10.6-13.1,12.9-31.9,2.1-44.9c-5.6-6.7-7.3-13.8-12.2-20.9c-4.4-6.5-5.3-14.3-6.3-21.8
	c-1.3-9.3-3.1-18.5-5.4-27.6c-0.7-2.7-4.4-4.3-6.2-6.5c-3.6-4.3-14-4.1-20-5.1c-10.1-1.6-21-3.1-30.2,0.9c-6.4,2.8-11,7.8-16,12.2
	C770.1,590.9,752.9,592.9,761,604.2z"/>
</svg>
