<?xml version="1.0" encoding="utf-8"?>
<!-- Generator: Adobe Illustrator 24.1.0, SVG Export Plug-In . SVG Version: 6.00 Build 0)  -->
<svg version="1.1" id="b9a78677-c6ff-4166-85e2-4e2750d12f14"
	 xmlns="http://www.w3.org/2000/svg" xmlns:xlink="http://www.w3.org/1999/xlink" x="0px" y="0px" viewBox="0 0 835 673.7"
	 style="enable-background:new 0 0 835 673.7;" xml:space="preserve">
<style type="text/css">
	.st0{fill:#3F3D56;}
	.st1{fill:#D0CDE1;}
	.st2{fill:#6C63FF;}
	.st3{opacity:0.1;enable-background:new    ;}
	.st4{fill:#F2F2F2;}
	.st5{fill:#FFB8B8;}
	.st6{fill:#2F2E41;}
	.st7{fill:#575A89;}
</style>
<rect x="49.8" class="st0" width="338" height="597"/>
<ellipse class="st0" cx="417.5" cy="599.9" rx="417.5" ry="9.7"/>
<ellipse class="st0" cx="417.5" cy="632" rx="289" ry="6.7"/>
<ellipse class="st0" cx="417.6" cy="661.1" rx="235.8" ry="5.5"/>
<rect x="49.8" y="114.5" class="st1" width="338" height="2"/>
<rect x="49.8" y="236.5" class="st1" width="338" height="2"/>
<rect x="49.8" y="358.5" class="st1" width="338" height="2"/>
<rect x="49.8" y="480.5" class="st1" width="338" height="2"/>
<path class="st1" d="M204.8,266.1L204.8,266.1l-6-18.5l-1.1,1c-6.7,6.2-15.9,9.1-24.9,8l-1.5-0.2l6,18.5l0,0l4.1,12.7l0,0l13.8,42.8
	l0,0l4.1,12.7l0,0l4.5,14l1.1-0.8c7.3-5.3,16.1-8.1,25.1-8.1l1.4,0l-4.5-14l0,0l-4.1-12.7l0,0l-13.8-42.8l0,0L204.8,266.1z
	 M174.1,258.7c8.6,0.7,17.2-2.1,23.8-7.7l5,15.6l-23.8,7.7L174.1,258.7z M179.7,276.3l23.8-7.7l2.9,8.9l-23.8,7.7L179.7,276.3z
	 M228.5,346.4c-8.5,0.2-16.8,2.9-23.8,7.7l-3.7-11.5l23.8-7.7L228.5,346.4z M224.2,333l-23.8,7.7l-2.9-8.9l23.8-7.7L224.2,333z
	 M220.7,322.2l-23.8,7.7l-13.8-42.8l23.8-7.7L220.7,322.2z"/>
<path class="st1" d="M86.8,144.1L86.8,144.1l-6-18.5l-1.1,1c-6.7,6.2-15.9,9.1-24.9,8l-1.5-0.2l6,18.5l0,0l4.1,12.7l0,0L77,208.5
	l0,0l4.1,12.7l0,0l4.5,14l1.1-0.8c7.3-5.3,16.1-8.1,25.1-8.1l1.4,0l-4.5-14l0,0l-4.1-12.7l0,0l-13.8-42.8l0,0L86.8,144.1z
	 M56.1,136.7c8.6,0.7,17.2-2.1,23.8-7.7l5,15.6l-23.8,7.7L56.1,136.7z M61.7,154.3l23.8-7.7l2.9,8.9l-23.8,7.7L61.7,154.3z
	 M110.5,224.4c-8.5,0.2-16.8,2.9-23.8,7.7L83,220.6l23.8-7.7L110.5,224.4z M106.2,211l-23.8,7.7l-2.9-8.9l23.8-7.7L106.2,211z
	 M102.7,200.2l-23.8,7.7l-13.8-42.8l23.8-7.7L102.7,200.2z"/>
<path class="st0" d="M782.7,117.5c-7.6,0-13.7-6.1-13.7-13.7c0-7.6,6.1-13.7,13.7-13.7c7.6,0,13.7,6.1,13.7,13.7
	C796.4,111.3,790.3,117.5,782.7,117.5z M782.7,92.4c-6.3,0-11.4,5.1-11.4,11.4s5.1,11.4,11.4,11.4s11.4-5.1,11.4-11.4c0,0,0,0,0,0
	C794.1,97.5,789,92.4,782.7,92.4z"/>
<path class="st0" d="M807.4,515h-22.5v-22.5h22.5V515z M786.6,513.3h19.1v-19.1h-19.1V513.3z"/>
<path class="st0" d="M444.2,161.6l-15.4-16.5l16.5-15.4l15.4,16.5L444.2,161.6z M431.3,145.2l13,14l14-13l-13-14L431.3,145.2z"/>
<polygon class="st2" points="687.9,364.2 656.2,402.6 703.1,458 734.4,421.2 "/>
<polygon class="st3" points="687.9,364.2 656.2,402.6 703.1,458 734.4,421.2 "/>
<path class="st4" d="M657.5,403.1L657.5,403.1c0.7-1.3,1.6-2.4,2.6-3.5l29.1-29.5c0,0,10.2-1.7,12.3,3.4l-37.2,30.5L657.5,403.1z"/>
<path class="st2" d="M656,402.4l43.1,66c0,0,4.2,3,8.5,1.3l44.2-29.8l-46.9-71.1l-42.3,33L656,402.4z"/>
<rect x="682.2" y="403.7" transform="matrix(0.8295 -0.5585 0.5585 0.8295 -109.8189 460.6921)" class="st0" width="35" height="13"/>
<path class="st5" d="M692.3,348.5c0,0,4,30-10,29s-7-27-7-27L692.3,348.5z"/>
<path class="st6" d="M582.3,240.5l-17-2v-2l-16-2c0,0-35,66-33,108s29,226,29,226s42-4,48-16l-7-41l-4-49c0,0,27,137,39,137
	s47-7,44-12s-39-159-39-159l-4-75l-9-110L582.3,240.5z"/>
<circle class="st5" cx="596.3" cy="112.5" r="28"/>
<path class="st5" d="M597.3,131.5c0,0,11,25,3,36s43-18,43-18s-25-24-26-35L597.3,131.5z"/>
<path class="st1" d="M643.3,145.5c0,0-26,16-47,10l-52,85l86,16l19-108L643.3,145.5z"/>
<path class="st7" d="M631.3,142.5c0,0,4-5,9-2c5,3,37,4,39,17s-48,211-48,211l-8-2c0,0,9-3-26-12s-40-39-32-75s11-58,11-58
	L631.3,142.5z"/>
<path class="st7" d="M602.6,149.4c0,0-35.3,15.1-36.3,20.1s-39,95-39,95l-8,7l4,3l-29,64c0,0,1,8,16,8h9c0,0,15-76,25-90
	S618.9,162.3,602.6,149.4z"/>
<path class="st7" d="M666.3,152.5c0,0,13-4,16,22s2,43,2,43l13,136l-28,3l-25-153L666.3,152.5z"/>
<path class="st6" d="M553.3,561.5c0,0,0,20-9,23s-36,27-4,26s29-16,29-16v-4l8,4l16-4c0,0,5-35,0-38S553.3,561.5,553.3,561.5z"/>
<path class="st6" d="M628.3,594.5c0,0,1,30-11,44s-25,33-9,35s45-10,44-17s0-9,0-9h5l8-6c0,0,5-49-4-53S628.3,594.5,628.3,594.5z"/>
<path class="st5" d="M542.3,216.5l7-10c0,0,13-12,22-6s-16.8,23.4-16.8,23.4h-7.2l-2.9,2L542.3,216.5z"/>
<circle class="st6" cx="580.8" cy="236" r="4"/>
<circle class="st6" cx="579.8" cy="251" r="4"/>
<path class="st7" d="M532.3,229.5l12-23c0,0,0.1,21.2,7.6,21.6l-15.6,22.4L532.3,229.5z"/>
<path class="st6" d="M559.8,104.2c0,0-16.2-45.8,36.5-41c0,0,33.9-14.1,54.9,27.6l21.7,43.7l-6.4-1.9l-1.4,6.4l-8.7,4.3l-5.6-7
	l0.1,10l-74.2,23.8c0,0,29.6-27.4,22.4-63.5l-5,8.2L559.8,104.2z"/>
<path class="st2" d="M165.8,271v3.4h-25V271h-2v68h2v-2.1h25v2.1h2v-68H165.8z M165.8,325.3h-25v-39.2h25V325.3z"/>
<path class="st2" d="M126.8,278v3.1h-25V278h-2v61h2v-1.9h25v1.9h2v-61L126.8,278z M126.8,326.7h-25v-35.2h25V326.7z"/>
<path class="st2" d="M87.8,271v3.2h-25V271h-2v64h2v-2h25v2h2v-64H87.8z M87.8,322.1h-25v-36.9h25V322.1z"/>
<path class="st2" d="M371.8,151v3.4h-25V151h-2v68h2v-2.1h25v2.1h2v-68H371.8z M371.8,205.3h-25v-39.2h25V205.3z"/>
<path class="st2" d="M332.8,158v3.1h-25V158h-2v61h2v-1.9h25v1.9h2v-61L332.8,158z M332.8,206.7h-25v-35.2h25V206.7z"/>
<path class="st2" d="M293.8,151v3.2h-25V151h-2v64h2v-2h25v2h2v-64H293.8z M293.8,202.1h-25v-36.9h25V202.1z"/>
<path class="st1" d="M166.4,252.1c-8.3,3.8-17.9,3.8-26.2,0l-1.4-0.6v105.9l1.3-0.4c8.6-2.8,17.8-2.8,26.4,0l1.3,0.4V251.5
	L166.4,252.1z M140.8,329.2v-45h25v45H140.8z M165.8,331.2v9.4h-25v-9.4H165.8z M140.8,282.3v-9.4h25v9.4H140.8z M165.8,354.6
	c-8.2-2.4-16.8-2.4-25,0v-12h25V354.6z M165.8,270.9h-25v-16.4c8,3.3,17,3.3,25,0V270.9z"/>
<path class="st1" d="M127.5,357l1.3,0.4V251.5l-1.4,0.6c-8.3,3.8-17.9,3.8-26.2,0l-1.4-0.6v105.9l1.3-0.4
	C109.7,354.2,118.9,354.2,127.5,357z M126.8,340.6h-25v-9.4h25V340.6z M126.8,282.3h-25v-9.4h25V282.3z M101.8,254.5
	c8,3.3,17,3.3,25,0v16.4h-25V254.5z M101.8,284.3h25v45h-25V284.3z M101.8,342.6h25v12c-8.2-2.4-16.8-2.4-25,0V342.6z"/>
<path class="st1" d="M88.5,357l1.3,0.4V251.5l-1.4,0.6c-8.3,3.8-17.9,3.8-26.2,0l-1.4-0.6v105.9l1.3-0.4
	C70.7,354.2,79.9,354.2,88.5,357z M87.8,340.6h-25v-9.4h25V340.6z M87.8,282.3h-25v-9.4h25V282.3z M62.8,254.5c8,3.3,17,3.3,25,0
	v16.4h-25V254.5z M62.8,284.3h25v45h-25V284.3z M62.8,342.6h25v12c-8.2-2.4-16.8-2.4-25,0V342.6z"/>
<path class="st1" d="M294.5,235l1.3,0.4V129.5l-1.4,0.6c-8.3,3.8-17.9,3.8-26.2,0l-1.4-0.6v105.9l1.3-0.4
	C276.7,232.2,285.9,232.2,294.5,235z M293.8,218.6h-25v-9.4h25V218.6z M293.8,160.3h-25v-9.4h25V160.3z M268.8,132.5
	c8,3.3,17,3.3,25,0v16.4h-25V132.5z M268.8,162.3h25v45h-25V162.3z M268.8,220.6h25v12c-8.2-2.4-16.8-2.4-25,0V220.6z"/>
<path class="st1" d="M333.5,235l1.3,0.4V129.5l-1.4,0.6c-8.3,3.8-17.9,3.8-26.2,0l-1.4-0.6v105.9l1.3-0.4
	C315.7,232.2,324.9,232.2,333.5,235z M332.8,218.6h-25v-9.4h25V218.6z M332.8,160.3h-25v-9.4h25V160.3z M307.8,132.5
	c8,3.3,17,3.3,25,0v16.4h-25V132.5z M307.8,162.3h25v45h-25V162.3z M307.8,220.6h25v12c-8.2-2.4-16.8-2.4-25,0V220.6z"/>
<path class="st1" d="M372.5,235l1.3,0.4V129.5l-1.4,0.6c-8.3,3.8-17.9,3.8-26.2,0l-1.4-0.6v105.9l1.3-0.4
	C354.7,232.2,363.9,232.2,372.5,235z M371.8,218.6h-25v-9.4h25V218.6z M371.8,160.3h-25v-9.4h25V160.3z M346.8,132.5
	c8,3.3,17,3.3,25,0v16.4h-25V132.5z M346.8,162.3h25v45h-25V162.3z M346.8,232.7v-12h25v12C363.6,230.3,354.9,230.3,346.8,232.7z"/>
<path class="st2" d="M83,391.5v3.2H58v-3.2h-2v64h2v-2h25v2h2v-64H83z M83,442.6H58v-36.9h25V442.6z"/>
<path class="st1" d="M83.7,477.4l1.3,0.4V372l-1.4,0.6c-8.3,3.8-17.9,3.8-26.2,0L56,372v105.9l1.3-0.4
	C65.9,474.7,75.1,474.7,83.7,477.4z M83,461.1H58v-9.4h25V461.1z M83,402.8H58v-9.4h25V402.8z M58,375c8,3.3,17,3.3,25,0v16.4H58
	V375z M58,404.8h25v45H58V404.8z M58,463.1h25v12c-8.2-2.4-16.8-2.4-25,0V463.1z"/>
<path class="st2" d="M118.7,391.5v3.2h-25v-3.2h-2v64h2v-2h25v2h2v-64H118.7z M118.7,442.6h-25v-36.9h25V442.6z"/>
<path class="st1" d="M119.4,477.4l1.3,0.4V372l-1.4,0.6c-8.3,3.8-17.9,3.8-26.2,0l-1.4-0.6v105.9l1.3-0.4
	C101.6,474.7,110.8,474.7,119.4,477.4z M118.7,461.1h-25v-9.4h25V461.1z M118.7,402.8h-25v-9.4h25V402.8z M93.7,375
	c8,3.3,17,3.3,25,0v16.4h-25V375z M93.7,404.8h25v45h-25V404.8z M93.7,463.1h25v12c-8.2-2.4-16.8-2.4-25,0V463.1z"/>
<path class="st2" d="M153.3,391.5v3.2h-25v-3.2h-2v64h2v-2h25v2h2v-64H153.3z M153.3,442.6h-25v-36.9h25V442.6z"/>
<path class="st1" d="M154,477.4l1.3,0.4V372l-1.4,0.6c-8.3,3.8-17.9,3.8-26.2,0l-1.4-0.6v105.9l1.3-0.4
	C136.2,474.7,145.4,474.7,154,477.4z M153.3,461.1h-25v-9.4h25V461.1z M153.3,402.8h-25v-9.4h25V402.8z M128.3,375
	c8,3.3,17,3.3,25,0v16.4h-25V375z M128.3,404.8h25v45h-25V404.8z M128.3,463.1h25v12c-8.2-2.4-16.8-2.4-25,0V463.1z"/>
<path class="st2" d="M189.4,391.5v3.2h-25v-3.2h-2v64h2v-2h25v2h2v-64H189.4z M189.4,442.6h-25v-36.9h25V442.6z"/>
<path class="st1" d="M190.1,477.4l1.3,0.4V372l-1.4,0.6c-8.3,3.8-17.9,3.8-26.2,0l-1.4-0.6v105.9l1.3-0.4
	C172.3,474.7,181.5,474.7,190.1,477.4z M189.4,461.1h-25v-9.4h25V461.1z M189.4,402.8h-25v-9.4h25V402.8z M164.4,375
	c8,3.3,17,3.3,25,0v16.4h-25V375z M164.4,404.8h25v45h-25V404.8z M164.4,463.1h25v12c-8.2-2.4-16.8-2.4-25,0V463.1z"/>
<path class="st2" d="M224.6,391.9v3.2h-25v-3.2h-2v64h2v-2h25v2h2v-64H224.6z M224.6,443h-25v-36.9h25V443z"/>
<path class="st1" d="M225.3,477.8l1.3,0.4V372.4l-1.4,0.6c-8.3,3.8-17.9,3.8-26.2,0l-1.4-0.6v105.9l1.3-0.4
	C207.4,475.1,216.7,475.1,225.3,477.8z M224.6,461.5h-25v-9.4h25V461.5z M224.6,403.2h-25v-9.4h25V403.2z M199.6,375.4
	c8,3.3,17,3.3,25,0v16.4h-25V375.4z M199.6,405.2h25v45h-25V405.2z M199.6,463.5h25v12c-8.2-2.4-16.8-2.4-25,0V463.5z"/>
<path class="st2" d="M258.3,391.9v3.2h-25v-3.2h-2v64h2v-2h25v2h2v-64H258.3z M258.3,443h-25v-36.9h25V443z"/>
<path class="st1" d="M259,477.8l1.3,0.4V372.4l-1.4,0.6c-8.3,3.8-17.9,3.8-26.2,0l-1.4-0.6v105.9l1.3-0.4
	C241.1,475.1,250.4,475.1,259,477.8z M258.3,461.5h-25v-9.4h25V461.5z M258.3,403.2h-25v-9.4h25V403.2z M233.3,375.4
	c8,3.3,17,3.3,25,0v16.4h-25V375.4z M233.3,405.2h25v45h-25V405.2z M233.3,463.5h25v12c-8.2-2.4-16.8-2.4-25,0V463.5z"/>
<path class="st2" d="M293.4,391.9v3.2h-25v-3.2h-2v64h2v-2h25v2h2v-64H293.4z M293.4,443h-25v-36.9h25V443z"/>
<path class="st1" d="M294.1,477.8l1.3,0.4V372.4L294,373c-8.3,3.8-17.9,3.8-26.2,0l-1.4-0.6v105.9l1.3-0.4
	C276.3,475.1,285.5,475.1,294.1,477.8z M293.4,461.5h-25v-9.4h25V461.5z M293.4,403.2h-25v-9.4h25V403.2z M268.4,375.4
	c8,3.3,17,3.3,25,0v16.4h-25V375.4z M268.4,405.2h25v45h-25V405.2z M268.4,463.5h25v12c-8.2-2.4-16.8-2.4-25,0V463.5z"/>
<path class="st2" d="M327.1,391.9v3.2h-25v-3.2h-2v64h2v-2h25v2h2v-64H327.1z M327.1,443h-25v-36.9h25V443z"/>
<path class="st1" d="M327.8,477.8l1.3,0.4V372.4l-1.4,0.6c-8.3,3.8-17.9,3.8-26.2,0l-1.4-0.6v105.9l1.3-0.4
	C310,475.1,319.2,475.1,327.8,477.8z M327.1,461.5h-25v-9.4h25V461.5z M327.1,403.2h-25v-9.4h25V403.2z M302.1,375.4
	c8,3.3,17,3.3,25,0v16.4h-25V375.4z M302.1,405.2h25v45h-25V405.2z M302.1,463.5h25v12c-8.2-2.4-16.8-2.4-25,0V463.5z"/>
<path class="st2" d="M360.9,388.2l0.7,3.1l-24.4,5.5l-0.7-3.1l-2,0.4l14,62.5l2-0.4l-0.4-1.9l24.4-5.5l0.4,1.9l2-0.4l-14-62.5
	L360.9,388.2z M372,438l-24.4,5.5l-8.1-36L364,402L372,438z"/>
<path class="st1" d="M380.3,471.9l1.4,0.1l-23.1-103.3l-1.2,0.9c-7.3,5.5-16.6,7.6-25.6,5.7l-1.5-0.3l23.1,103.3l1.2-0.7
	C362.4,473.1,371.4,471,380.3,471.9z M376.1,456.1l-24.4,5.5l-2-9.1l24.4-5.5L376.1,456.1z M363.4,399.2l-24.4,5.5l-2-9.1l24.4-5.5
	L363.4,399.2z M332.9,377.5c8.5,1.4,17.3-0.5,24.4-5.5l3.6,16l-24.4,5.5L332.9,377.5z M339.4,406.6l24.4-5.5l9.8,43.9l-24.4,5.5
	L339.4,406.6z M352.1,463.5l24.4-5.5l2.6,11.8c-8.5-0.5-17,1.4-24.4,5.5L352.1,463.5z"/>
<path class="st2" d="M80.8,26.4v3.2h-25v-3.2h-2v64h2v-2h25v2h2v-64H80.8z M80.8,77.5h-25V40.6h25V77.5z"/>
<path class="st1" d="M81.5,112.4l1.3,0.4V6.9l-1.4,0.6c-8.3,3.8-17.9,3.8-26.2,0l-1.4-0.6v105.9l1.3-0.4
	C63.7,109.6,72.9,109.6,81.5,112.4z M80.8,96h-25v-9.4h25V96z M80.8,37.7h-25v-9.4h25V37.7z M55.8,9.9c8,3.3,17,3.3,25,0v16.4h-25
	V9.9z M55.8,39.7h25v45h-25V39.7z M55.8,98h25v12c-8.2-2.4-16.8-2.4-25,0V98z"/>
<path class="st2" d="M113.7,26.4v3.2h-25v-3.2h-2v64h2v-2h25v2h2v-64H113.7z M113.7,77.5h-25V40.6h25V77.5z"/>
<path class="st1" d="M114.4,112.4l1.3,0.4V6.9l-1.4,0.6c-8.3,3.8-17.9,3.8-26.2,0l-1.4-0.6v105.9l1.3-0.4
	C96.6,109.6,105.8,109.6,114.4,112.4z M113.7,96h-25v-9.4h25V96z M113.7,37.7h-25v-9.4h25V37.7z M88.7,9.9c8,3.3,17,3.3,25,0v16.4
	h-25V9.9z M88.7,39.7h25v45h-25V39.7z M88.7,98h25v12c-8.2-2.4-16.8-2.4-25,0V98z"/>
<path class="st2" d="M146.5,26.4v3.2h-25v-3.2h-2v64h2v-2h25v2h2v-64H146.5z M146.5,77.5h-25V40.6h25V77.5z"/>
<path class="st1" d="M147.2,112.4l1.3,0.4V6.9l-1.4,0.6c-8.3,3.8-17.9,3.8-26.2,0l-1.4-0.6v105.9l1.3-0.4
	C129.4,109.6,138.6,109.6,147.2,112.4z M146.5,96h-25v-9.4h25V96z M146.5,37.7h-25v-9.4h25V37.7z M121.5,9.9c8,3.3,17,3.3,25,0v16.4
	h-25V9.9z M121.5,39.7h25v45h-25V39.7z M121.5,98h25v12c-8.2-2.4-16.8-2.4-25,0V98z"/>
<path class="st2" d="M180.1,26.4v3.2h-25v-3.2h-2v64h2v-2h25v2h2v-64H180.1z M180.1,77.5h-25V40.6h25V77.5z"/>
<path class="st1" d="M180.8,112.4l1.3,0.4V6.9l-1.4,0.6c-8.3,3.8-17.9,3.8-26.2,0l-1.4-0.6v105.9l1.3-0.4
	C163,109.6,172.3,109.6,180.8,112.4z M180.1,96h-25v-9.4h25V96z M180.1,37.7h-25v-9.4h25V37.7z M155.1,9.9c8,3.3,17,3.3,25,0v16.4
	h-25V9.9z M155.1,39.7h25v45h-25V39.7z M155.1,98h25v12c-8.2-2.4-16.8-2.4-25,0V98z"/>
<path class="st2" d="M212.7,26.4v3.2h-25v-3.2h-2v64h2v-2h25v2h2v-64H212.7z M212.7,77.5h-25V40.6h25V77.5z"/>
<path class="st1" d="M213.4,112.4l1.3,0.4V6.9l-1.4,0.6c-8.3,3.8-17.9,3.8-26.2,0l-1.4-0.6v105.9l1.3-0.4
	C195.6,109.6,204.8,109.6,213.4,112.4z M212.7,96h-25v-9.4h25V96z M212.7,37.7h-25v-9.4h25V37.7z M187.7,9.9c8,3.3,17,3.3,25,0v16.4
	h-25V9.9z M187.7,39.7h25v45h-25V39.7z M187.7,98h25v12c-8.2-2.4-16.8-2.4-25,0V98z"/>
<path class="st2" d="M246.7,26.4v3.2h-25v-3.2h-2v64h2v-2h25v2h2v-64H246.7z M246.7,77.5h-25V40.6h25V77.5z"/>
<path class="st1" d="M247.4,112.4l1.3,0.4V6.9l-1.4,0.6c-8.3,3.8-17.9,3.8-26.2,0l-1.4-0.6v105.9l1.3-0.4
	C229.5,109.6,238.8,109.6,247.4,112.4z M246.7,96h-25v-9.4h25V96z M246.7,37.7h-25v-9.4h25V37.7z M221.7,9.9c8,3.3,17,3.3,25,0v16.4
	h-25V9.9z M221.7,39.7h25v45h-25V39.7z M221.7,98h25v12c-8.2-2.4-16.8-2.4-25,0V98z"/>
<path class="st2" d="M280.3,26.4v3.2h-25v-3.2h-2v64h2v-2h25v2h2v-64H280.3z M280.3,77.5h-25V40.6h25V77.5z"/>
<path class="st1" d="M281,112.4l1.3,0.4V6.9l-1.4,0.6c-8.3,3.8-17.9,3.8-26.2,0l-1.4-0.6v105.9l1.3-0.4
	C263.2,109.6,272.4,109.6,281,112.4z M280.3,96h-25v-9.4h25V96z M280.3,37.7h-25v-9.4h25V37.7z M255.3,9.9c8,3.3,17,3.3,25,0v16.4
	h-25V9.9z M255.3,39.7h25v45h-25V39.7z M255.3,98h25v12c-8.2-2.4-16.8-2.4-25,0V98z"/>
<path class="st2" d="M314.1,26.4v3.2h-25v-3.2h-2v64h2v-2h25v2h2v-64H314.1z M314.1,77.5h-25V40.6h25V77.5z"/>
<path class="st1" d="M314.7,112.4l1.3,0.4V6.9l-1.4,0.6c-8.3,3.8-17.9,3.8-26.2,0l-1.4-0.6v105.9l1.3-0.4
	C296.9,109.6,306.2,109.6,314.7,112.4z M314.1,96h-25v-9.4h25V96z M314.1,37.7h-25v-9.4h25V37.7z M289.1,9.9c8,3.3,17,3.3,25,0v16.4
	h-25V9.9z M289.1,39.7h25v45h-25V39.7z M289.1,98h25v12c-8.2-2.4-16.8-2.4-25,0V98z"/>
<path class="st2" d="M347.3,26.4v3.2h-25v-3.2h-2v64h2v-2h25v2h2v-64H347.3z M347.3,77.5h-25V40.6h25V77.5z"/>
<path class="st1" d="M348,112.4l1.3,0.4V6.9l-1.4,0.6c-8.3,3.8-17.9,3.8-26.2,0l-1.4-0.6v105.9l1.3-0.4
	C330.2,109.6,339.4,109.6,348,112.4z M347.3,96h-25v-9.4h25V96z M347.3,37.7h-25v-9.4h25V37.7z M322.3,9.9c8,3.3,17,3.3,25,0v16.4
	h-25V9.9z M322.3,39.7h25v45h-25V39.7z M322.3,98h25v12c-8.2-2.4-16.8-2.4-25,0V98z"/>
<path class="st2" d="M380.5,26.4v3.2h-25v-3.2h-2v64h2v-2h25v2h2v-64H380.5z M380.5,77.5h-25V40.6h25V77.5z"/>
<path class="st1" d="M381.2,112.4l1.3,0.4V6.9l-1.4,0.6c-8.3,3.8-17.9,3.8-26.2,0l-1.4-0.6v105.9l1.3-0.4
	C363.4,109.6,372.7,109.6,381.2,112.4z M380.5,96h-25v-9.4h25V96z M380.5,37.7h-25v-9.4h25V37.7z M355.5,9.9c8,3.3,17,3.3,25,0v16.4
	h-25V9.9z M355.5,39.7h25v45h-25V39.7z M355.5,98h25v12c-8.2-2.4-16.8-2.4-25,0V98z"/>
</svg>
