<?xml version="1.0" encoding="utf-8"?>
<!-- Generator: Adobe Illustrator 19.0.1, SVG Export Plug-In . SVG Version: 6.00 Build 0)  -->
<svg version="1.1" id="_x35_e1838a0-6e06-4e3f-aa75-de6d8e6cdfa0"
	 xmlns="http://www.w3.org/2000/svg" xmlns:xlink="http://www.w3.org/1999/xlink" x="0px" y="0px" viewBox="-495 572 1007 858"
	 style="enable-background:new -495 572 1007 858;" xml:space="preserve">
<style type="text/css">
	.st0{fill:#444053;}
	.st1{fill:#EFB7B9;}
	.st2{opacity:3.000000e-002;enable-background:new    ;}
	.st3{opacity:0.1;enable-background:new    ;}
	.st4{fill:#E1E7EF;}
	.st5{fill:#67647E;}
	.st6{fill:#E4E6ED;}
	.st7{fill:#6C63FF;}
	.st8{fill:#D8D9E5;}
</style>
<path class="st0" d="M118.6,724.7C73.4,654.3-16.1,651-16.1,651s-87.2-10.3-143.1,97c-52.1,99.9-124.1,196.4-11.6,219.8l20.3-58.3
	l12.6,62.6c16,1.1,32.1,1.3,48.1,0.8c120.5-3.6,235.2,1,231.5-38.8C136.9,881.2,162.2,792.5,118.6,724.7z"/>
<title>reading list</title>
<polygon class="st1" points="-320.1,1384.6 -291.1,1388.2 -274.2,1305 -306.8,1285.7 -349,1331.5 "/>
<polygon class="st2" points="-320.1,1384.6 -291.1,1388.2 -274.2,1305 -306.8,1285.7 -349,1331.5 "/>
<path class="st1" d="M68.4,975.6l-70,62.7c0,0-135.1,30.2-101.4-12.1c19.1-23.9,16.6-60.2,10.8-87.2c-2.6-12.2-6.2-24.2-10.8-35.9
	c0,0,173.8-104.9,149.7-25.3c-7.2,23.6-8.2,41.8-6,55.8C45.8,966.6,68.4,975.6,68.4,975.6z"/>
<path class="st3" d="M46.8,877.8c-7.2,23.6-8.2,41.8-6,55.8c-40.3,24.9-90.6,27-132.8,5.4c-2.6-12.2-6.2-24.2-10.8-35.9
	C-102.9,903.1,70.9,798.2,46.8,877.8z"/>
<path class="st1" d="M95.9,828.6c0,67.8-55,122.8-122.8,122.8s-122.8-55-122.8-122.8c0-67.8,55-122.8,122.8-122.8
	c67.6-0.2,122.6,54.4,122.9,122.1C95.9,828.1,95.9,828.3,95.9,828.6z"/>
<polygon class="st4" points="-123.4,991.2 -123.4,1238.6 114.3,1219.3 74.5,967.1 -30.5,1029.9 "/>
<path class="st3" d="M5.7,1143.3l-26.5-74.8h1.1C8.1,1038.3-4,1020.2-4,1020.2h-38.5c-24.5,17.4-7.5,39.9-1.7,46.4l-11.5,76.6
	L5.7,1143.3z"/>
<path class="st0" d="M5.7,1140.9l-26.5-74.8h1.1C8.1,1035.9-4,1017.8-4,1017.8h-38.5c-24.5,17.4-7.5,39.9-1.7,46.4l-11.5,76.6H5.7z"
	/>
<path class="st3" d="M41,937.9c0,0-7.6,35.3-60.7,82.3c0,0,16.3,5.4,18.7,48.9l19.9,27.2c0,0,15.7-56.7,43.4-76c27.8-19.3,0-70,0-70
	L41,937.9z"/>
<path class="st4" d="M41,935.5c0,0-7.6,35.3-60.7,82.3c0,0,16.3,5.4,18.7,48.9l19.9,27.2c0,0,15.7-56.7,43.4-76c27.8-19.3,0-70,0-70
	L41,935.5z"/>
<path class="st3" d="M-30.5,1020.2c0,0-22.8,18.1-24.1,47.1s-13.3,29-13.3,29s-30.2-92.9-39.8-101.4s17.4-44.1,17.4-44.1
	S-75.1,1000.9-30.5,1020.2z"/>
<path class="st4" d="M-30.5,1017.8c0,0-22.8,18.1-24.1,47.1c-1.2,29-13.3,29-13.3,29s-30.2-92.9-39.9-101.4
	c-9.7-8.4,17.4-44.1,17.4-44.1S-75.1,998.5-30.5,1017.8z"/>
<path class="st3" d="M39.5,935.7l30.2,12.1c0,0,33.8,21.8,156.9,38.6c0,0,18.1,0,30.2,57.9l154.4,206.3c0,0,74.8,55.5,12.1,111
	l-138.1,15.1c0,0,79.6-76-41-78.4l22.3-18.7c0,0-35-32.6-42.2-53.1c-7.2-20.5-66.3-43.4-66.3-43.4l7.2,173.8l-108.6,16.9
	l-15.7-323.3c-0.8-15.2,0.1-30.5,2.6-45.6C47.4,980.3,51.8,941.4,39.5,935.7z"/>
<path class="st5" d="M40.7,935.7l30.2,12.1c0,0,33.8,21.8,156.9,38.6c0,0,18.1,0,30.2,57.9l154.4,206.3c0,0,74.8,55.5,12.1,111
	l-138.1,15.1c0,0,79.6-76-41-78.4l22.3-18.7c0,0-35-32.6-42.2-53.1s-66.3-43.4-66.3-43.4l7.2,173.8l-108.7,16.9l-15.7-323.3
	c-0.8-15.2,0.1-30.5,2.6-45.6C48.6,980.3,53,941.4,40.7,935.7z"/>
<path class="st3" d="M-89.6,947.8l-153.2,39.9c0,0-22.9-14.5-50.7,99l-97.7,176.2c0,0-56.7,55.5-13.3,102.6s97.8,24.1,97.8,24.1
	s-49.5-77.2,37.4-96.5l32.6-41l147.2,16.9l-3.7-212.4l4.1-24.8c4.5-26.8,4.5-54.1,0-80.8L-89.6,947.8z"/>
<path class="st5" d="M-90.8,947.8L-244,987.7c0,0-22.9-14.5-50.7,99l-97.7,176.2c0,0-56.8,55.5-13.3,102.5
	c43.5,47,97.7,24.1,97.7,24.1s-49.5-77.2,37.4-96.5l32.6-41l147.2,16.9l-3.7-212.4l4.1-24.8c4.5-26.8,4.5-54.1,0-80.8L-90.8,947.8z"
	/>
<polygon class="st6" points="-241.6,1066.1 -256.1,1076.9 -37.7,1132.4 -37.7,1110.7 "/>
<polygon class="st6" points="180.7,1062.4 195.2,1073.3 -37.7,1132.4 -37.7,1110.7 "/>
<polygon class="st7" points="-269.4,1066.1 -66.7,1113.1 -52.2,1407.5 -229.6,1352 "/>
<polygon class="st7" points="204.8,1066.1 -11.2,1115.5 0.9,1411.2 201.2,1349.6 "/>
<path class="st7" d="M-73.9,1113.1c0,0,35.4,21.8,72.6,0l7.2,300.5h-58.1L-73.9,1113.1z"/>
<path class="st3" d="M-73.9,1113.1c0,0,35.4,21.8,72.6,0l7.2,300.5h-58.1L-73.9,1113.1z"/>
<path class="st8" d="M-236.8,1062.4v8.4l199.1,39.8C-37.7,1110.7-139.1,1073.3-236.8,1062.4z"/>
<path class="st8" d="M177.1,1057.6v8.4l-214.8,44.6C-37.7,1110.7,79.3,1068.5,177.1,1057.6z"/>
<path class="st1" d="M243.1,1297.8l-6.3,1.7c0,0-41-35.9-93.3,18.5c-52.3,54.4,17.4,81,17.4,81s71.8,3.1,94.3-10.3
	c9.7-5.8,20.3-9.9,31.4-12.2c6.8-1.3,13-4.8,17.6-9.9l0,0c8.6-9.4,12.4-22.1,10.5-34.6l0,0c-2.5-16.6-14.6-30.1-30.9-34.4l0,0
	C270.5,1294.1,256.4,1294.2,243.1,1297.8z"/>
<path class="st1" d="M-288.7,1303.8c0,0,48.3-43.4,107.4,29c59.1,72.4-45.9,73.6-45.9,73.6s-56.8,13.2-78.4-33.8
	S-288.7,1303.8-288.7,1303.8z"/>
<path class="st3" d="M248.2,1294.9c0,0,56.1,16.4,44.1,81.1l33.9-3.7l7.2-32.9l-14.5-45.8l-27.8-10.9L248.2,1294.9z"/>
<path class="st5" d="M249.4,1294.9c0,0,56.1,16.4,44.1,81.1l33.9-3.7l7.2-32.9l-14.5-45.8l-27.8-10.9L249.4,1294.9z"/>
<polygon class="st0" points="91.5,738.7 -1.7,696 -130.4,713.5 -157,816.3 -90.7,814 -72.2,776.3 -72.2,813.4 -41.6,812.4 
	-23.9,752.3 -12.8,816.3 95.9,814.3 "/>
</svg>
